<svg width="384" height="472" viewBox="0 0 384 472" xmlns="http://www.w3.org/2000/svg">
  <path d="M326 392H58C43.6406 392 32 403.641 32 418V446C32 460.359 43.6406 472 58 472H326C340.359 472 352 460.359 352 446V418C352 403.641 340.359 392 326 392Z" />
  <path fill-rule="evenodd" clip-rule="evenodd" d="M0 26V160C0 168.951 3.69112 177.43 10.1686 183.42C11.8347 184.96 13.8689 186.022 15.9795 186.856L31.5495 193.004C41.4769 196.924 48 206.513 48 217.187V342C48 356.359 59.6406 368 74 368H310C324.359 368 336 356.359 336 342V217.187C336 206.513 342.523 196.924 352.451 193.004L368.02 186.856C370.131 186.022 372.165 184.96 373.831 183.42C380.309 177.43 384 168.951 384 160V26C384 17.2 376.8 10 368 10H304C295.2 10 288 17.2 288 26V56C288 60.4 284.4 64 280 64H248C243.6 64 240 60.4 240 56V16C240 7.2 232.8 0 224 0H160C151.2 0 144 7.2 144 16V56C144 60.4 140.4 64 136 64H104C99.6 64 96 60.4 96 56V26C96 17.2 88.8 10 80 10H16C7.2 10 0 17.2 0 26ZM147 99H161C171.493 99 180 107.507 180 118V242C180 252.493 171.493 261 161 261H147C136.507 261 128 252.493 128 242V118C128 107.507 136.507 99 147 99ZM237 99H223C212.507 99 204 107.507 204 118V242C204 252.493 212.507 261 223 261H237C247.493 261 256 252.493 256 242V118C256 107.507 247.493 99 237 99ZM256 305C256 319.359 244.359 331 230 331C215.641 331 204 319.359 204 305C204 290.641 215.641 279 230 279C244.359 279 256 290.641 256 305ZM154 331C168.359 331 180 319.359 180 305C180 290.641 168.359 279 154 279C139.641 279 128 290.641 128 305C128 319.359 139.641 331 154 331Z" />
</svg>